<svg xmlns="http://www.w3.org/2000/svg" xmlns:xlink="http://www.w3.org/1999/xlink" width="960" zoomAndPan="magnify" viewBox="0 0 720 719.999996" height="960" preserveAspectRatio="xMidYMid meet" version="1.0"><defs><filter x="0%" y="0%" width="100%" height="100%" id="479cb8343c"><feColorMatrix values="0 0 0 0 1 0 0 0 0 1 0 0 0 0 1 0 0 0 1 0" color-interpolation-filters="sRGB"/></filter><g/><clipPath id="51a6e320dc"><path d="M 362 261.035156 L 591 261.035156 L 591 613.539062 L 362 613.539062 Z M 362 261.035156 " clip-rule="nonzero"/></clipPath><clipPath id="c4d831d359"><path d="M 128 261.035156 L 356 261.035156 L 356 613.539062 L 128 613.539062 Z M 128 261.035156 " clip-rule="nonzero"/></clipPath><clipPath id="aa0481a49a"><path d="M 364 93.882812 L 677 93.882812 L 677 577.183594 L 364 577.183594 Z M 364 93.882812 " clip-rule="nonzero"/></clipPath><clipPath id="72b9e7e4b6"><path d="M 42 94 L 355 94 L 355 577.183594 L 42 577.183594 Z M 42 94 " clip-rule="nonzero"/></clipPath><clipPath id="cc084b3edc"><path d="M 131.707031 140.15625 L 587.851562 140.15625 L 587.851562 647.894531 L 131.707031 647.894531 Z M 131.707031 140.15625 " clip-rule="nonzero"/></clipPath><mask id="08c39000dc"><g filter="url(#479cb8343c)"><rect x="-72" width="864" fill="#000000" y="-72" height="863.999995" fill-opacity="0.46"/></g></mask><clipPath id="e39dc7cfe8"><path d="M 0.28125 0.484375 L 336.761719 0.484375 L 336.761719 328 L 0.28125 328 Z M 0.28125 0.484375 " clip-rule="nonzero"/></clipPath><clipPath id="1e9fb87e95"><path d="M 44 112 L 293 112 L 293 356.171875 L 44 356.171875 Z M 44 112 " clip-rule="nonzero"/></clipPath><clipPath id="153f112724"><rect x="0" width="337" y="0" height="357"/></clipPath><clipPath id="3a65ae3ece"><path d="M 164.613281 427.0625 L 555.597656 427.0625 L 555.597656 568.125 L 164.613281 568.125 Z M 164.613281 427.0625 " clip-rule="nonzero"/></clipPath><clipPath id="dc5cf7ce4c"><path d="M 334.671875 201.296875 L 384.769531 201.296875 L 384.769531 245.671875 L 334.671875 245.671875 Z M 334.671875 201.296875 " clip-rule="nonzero"/></clipPath><clipPath id="029ac9de66"><path d="M 359.714844 201.296875 L 365.625 218.246094 L 384.753906 218.246094 L 369.277344 228.722656 L 375.191406 245.671875 L 359.714844 235.195312 L 344.238281 245.671875 L 350.148438 228.722656 L 334.671875 218.246094 L 353.800781 218.246094 Z M 359.714844 201.296875 " clip-rule="nonzero"/></clipPath><clipPath id="56b187744a"><path d="M 267.976562 214.265625 L 303.429688 214.265625 L 303.429688 245.671875 L 267.976562 245.671875 Z M 267.976562 214.265625 " clip-rule="nonzero"/></clipPath><clipPath id="8fe4aaaca3"><path d="M 285.699219 214.265625 L 289.882812 226.261719 L 303.421875 226.261719 L 292.46875 233.675781 L 296.652344 245.671875 L 285.699219 238.257812 L 274.746094 245.671875 L 278.929688 233.675781 L 267.976562 226.261719 L 281.515625 226.261719 Z M 285.699219 214.265625 " clip-rule="nonzero"/></clipPath><clipPath id="26c39fead5"><path d="M 415.777344 214.265625 L 451.234375 214.265625 L 451.234375 245.671875 L 415.777344 245.671875 Z M 415.777344 214.265625 " clip-rule="nonzero"/></clipPath><clipPath id="bd4a064c9b"><path d="M 433.5 214.265625 L 437.683594 226.261719 L 451.222656 226.261719 L 440.269531 233.675781 L 444.453125 245.671875 L 433.5 238.257812 L 422.546875 245.671875 L 426.730469 233.675781 L 415.777344 226.261719 L 429.316406 226.261719 Z M 433.5 214.265625 " clip-rule="nonzero"/></clipPath></defs><g clip-path="url(#51a6e320dc)"><path fill="#ff3131" d="M 557.1875 458.066406 C 536.832031 438.640625 511.914062 424.246094 485.449219 415.117188 C 468.507812 409.519531 451.175781 405.726562 433.445312 403.738281 C 452.484375 409.234375 471.441406 415.191406 489.316406 423.859375 C 504.320312 431.21875 518.300781 440.171875 531.261719 450.714844 C 553.472656 468.898438 572.664062 491.726562 583.34375 518.582031 C 586.507812 526.898438 588.636719 535.476562 589.722656 544.308594 C 590.808594 553.144531 590.824219 561.980469 589.765625 570.816406 C 587.90625 585.828125 584.039062 600.84375 576.300781 613.996094 C 577.460938 608.195312 578.621094 602.3125 577.847656 596.429688 C 577.074219 590.550781 575.140625 585.90625 572.972656 580.875 C 567.632812 568.648438 560.203125 557.429688 552.234375 546.828125 C 541.863281 533.128906 530.488281 520.050781 517.488281 508.675781 C 496.128906 489.714844 470.746094 476.097656 445.519531 462.941406 C 430.351562 454.890625 415.027344 446.613281 401.871094 435.546875 C 394.367188 429.121094 388.097656 421.152344 384.382812 411.941406 C 378.191406 397.164062 377.03125 380.058594 382.757812 364.96875 C 383.023438 364.425781 383.332031 363.910156 383.6875 363.421875 C 383.996094 366.964844 384.566406 370.464844 385.386719 373.921875 C 386.210938 377.382812 387.28125 380.761719 388.597656 384.066406 C 389.914062 387.367188 391.464844 390.558594 393.25 393.632812 C 395.03125 396.710938 397.03125 399.640625 399.242188 402.425781 C 408.371094 413.800781 420.910156 422.003906 434.066406 428.039062 C 447.21875 434.074219 462.621094 439.570312 477.015625 445.140625 C 462.542969 437.480469 447.453125 431.058594 433.367188 422.542969 C 423.386719 416.429688 413.015625 409.929688 406.285156 400.027344 C 401.949219 394.066406 399.164062 387.257812 396.378906 380.523438 C 393.59375 373.792969 391.191406 366.980469 389.027344 360.015625 C 378.496094 327.332031 369.699219 294.183594 362.636719 260.574219 C 368.132812 264.753906 374.011719 268.546875 379.121094 273.191406 C 390.496094 282.863281 399.9375 295.246094 404.503906 309.484375 C 409.222656 304.839844 415.878906 303.214844 422.300781 302.597656 C 435.148438 301.359375 447.996094 304.300781 459.988281 308.863281 C 462.464844 309.871094 465.175781 310.488281 467.417969 311.960938 C 452.328125 309.792969 436.617188 310.875 422.226562 315.90625 C 417.96875 317.6875 413.402344 319.542969 410.152344 322.949219 C 420.289062 317.222656 432.285156 315.289062 443.816406 316.371094 C 457.203125 317.300781 469.972656 322.484375 481.503906 329.140625 C 489.320312 334.179688 496.621094 339.878906 503.402344 346.242188 C 489.707031 340.515625 474.691406 338.8125 459.910156 338.890625 C 445.132812 338.96875 429.578125 341.523438 415.722656 347.558594 C 423.152344 345.777344 430.660156 344.074219 438.320312 343.921875 C 447.269531 343.554688 456.164062 344.105469 465 345.5625 C 473.835938 347.023438 482.433594 349.363281 490.789062 352.585938 C 502.320312 357.308594 513.539062 363.191406 522.980469 371.394531 C 534.355469 381.21875 543.796875 392.984375 552.621094 405.054688 C 548.519531 402.039062 544.882812 398.324219 540.625 395.535156 C 528.089844 386.328125 513.460938 380.523438 498.605469 376.5 C 489.285156 374.046875 479.828125 372.371094 470.230469 371.472656 C 460.632812 370.578125 451.03125 370.472656 441.417969 371.160156 C 435.691406 371.78125 429.808594 372.089844 424.238281 373.714844 C 432.695312 373.40625 441.136719 373.664062 449.558594 374.480469 C 457.984375 375.300781 466.316406 376.671875 474.554688 378.601562 C 482.796875 380.527344 490.875 382.992188 498.785156 385.996094 C 506.699219 389 514.375 392.515625 521.820312 396.542969 C 534.589844 403.277344 544.957031 413.722656 553.394531 425.332031 C 570.804688 449.398438 582.414062 477.257812 589.84375 505.890625 C 588.0625 503.101562 586.980469 500.007812 585.429688 497.066406 C 581.886719 489.800781 577.742188 482.890625 572.996094 476.34375 C 568.253906 469.792969 562.984375 463.703125 557.1875 458.066406 Z M 557.1875 458.066406 " fill-opacity="1" fill-rule="nonzero"/></g><g clip-path="url(#c4d831d359)"><path fill="#ff3131" d="M 323.945312 375.804688 C 319.765625 386.484375 315.199219 397.316406 307.382812 405.828125 C 297.941406 415.734375 285.792969 422.390625 273.953125 428.890625 C 263.351562 434.773438 252.207031 439.492188 241.605469 445.21875 C 254.375 440.1875 267.296875 435.46875 279.988281 430.128906 C 294.074219 423.9375 307.925781 415.890625 317.832031 403.816406 C 322.253906 398.429688 325.90625 392.5625 328.777344 386.210938 C 331.652344 379.859375 333.652344 373.242188 334.777344 366.363281 C 334.824219 365.375 335.160156 364.496094 335.785156 363.730469 C 342.59375 381.296875 340.503906 401.804688 331.375 418.132812 C 324.640625 430.128906 313.421875 438.71875 302.199219 446.300781 C 288.890625 455.046875 274.574219 462.089844 260.566406 469.519531 C 246.558594 476.945312 230.460938 486.078125 216.6875 496.214844 C 201.316406 507.519531 187.667969 520.625 175.75 535.527344 C 162.59375 551.703125 150.058594 568.957031 142.863281 588.769531 C 139.765625 596.742188 140.074219 605.484375 142.011719 613.609375 C 137.136719 605.949219 134.273438 597.28125 131.949219 588.613281 C 128.855469 575.691406 127.308594 562.304688 128.546875 549.070312 C 130.246094 528.484375 138.296875 508.828125 149.671875 491.804688 C 171.496094 459.84375 203.066406 435.082031 238.511719 419.835938 C 253.367188 413.414062 268.847656 408.617188 284.324219 404.125 C 275.964844 404.667969 267.761719 406.527344 259.558594 408.152344 C 222.957031 415.191406 188.132812 432.605469 161.28125 458.605469 C 147.273438 472.148438 136.359375 488.789062 128.933594 506.664062 C 129.164062 502.871094 130.710938 499.3125 131.871094 495.75 C 138.683594 473.929688 147.8125 452.726562 160.195312 433.457031 C 168.242188 420.996094 177.996094 409.464844 189.914062 400.644531 C 213.824219 385.632812 241.527344 377.273438 269.542969 374.644531 C 277.824219 373.636719 286.179688 374.179688 294.539062 373.945312 C 284.324219 371.546875 273.875 370.929688 263.429688 370.851562 C 254.496094 370.835938 245.621094 371.558594 236.808594 373.019531 C 221.097656 375.570312 205.621094 379.984375 191.460938 387.257812 C 182.097656 391.824219 173.816406 398.398438 166.308594 405.597656 C 167.65625 403.320312 169.125 401.128906 170.71875 399.019531 C 178.847656 388.417969 187.511719 378.203125 197.882812 369.691406 C 208.253906 361.175781 221.871094 354.289062 235.335938 349.878906 C 257.082031 342.683594 280.839844 341.675781 302.972656 347.558594 C 288.65625 341.058594 272.714844 339.355469 257.238281 338.734375 C 243 338.8125 228.371094 340.359375 215.292969 346.320312 C 223.289062 338.695312 232.109375 332.195312 241.761719 326.820312 C 255.535156 319.15625 271.554688 314.902344 287.339844 316.679688 C 294.847656 317.300781 301.890625 320.007812 308.621094 323.257812 C 303.128906 318.382812 296.007812 315.753906 289.042969 313.894531 C 282.917969 312.46875 276.710938 311.625 270.425781 311.363281 C 264.144531 311.105469 257.890625 311.433594 251.667969 312.347656 C 253.214844 311.265625 255.070312 310.644531 256.773438 309.949219 C 257.582031 310.449219 258.457031 310.65625 259.40625 310.566406 L 257.316406 309.328125 C 260.023438 309.019531 262.421875 307.703125 264.976562 306.929688 C 276.507812 303.214844 288.890625 301.28125 300.882812 303.601562 C 305.757812 304.609375 310.945312 306.15625 314.347656 310.179688 C 316.671875 300.972656 321.933594 292.769531 327.8125 285.417969 C 335.550781 275.589844 345.613281 268.003906 355.75 260.808594 C 352.113281 279.457031 347.46875 297.796875 342.75 316.214844 C 337.101562 336.257812 331.449219 356.378906 323.945312 375.804688 Z M 323.945312 375.804688 " fill-opacity="1" fill-rule="nonzero"/></g><g clip-path="url(#aa0481a49a)"><path fill="#ff3131" d="M 630.835938 307.648438 C 602.9375 334.273438 568.785156 354 532.507812 366.515625 C 509.289062 374.1875 485.527344 379.386719 461.226562 382.109375 C 487.320312 374.578125 513.308594 366.410156 537.808594 354.53125 C 558.371094 344.445312 577.535156 332.175781 595.300781 317.722656 C 625.742188 292.796875 652.050781 261.507812 666.6875 224.699219 C 668.851562 219.019531 670.664062 213.230469 672.125 207.332031 C 673.589844 201.433594 674.691406 195.464844 675.433594 189.433594 C 676.175781 183.402344 676.550781 177.347656 676.558594 171.269531 C 676.570312 165.191406 676.214844 159.136719 675.492188 153.101562 C 672.945312 132.523438 667.640625 111.945312 657.035156 93.914062 C 658.625 101.867188 660.21875 109.929688 659.15625 117.992188 C 658.09375 126.054688 655.445312 132.417969 652.472656 139.3125 C 645.15625 156.070312 634.972656 171.453125 624.046875 185.984375 C 609.832031 204.757812 594.242188 222.683594 576.421875 238.277344 C 547.144531 264.265625 512.351562 282.933594 477.773438 300.964844 C 456.984375 311.996094 435.980469 323.347656 417.949219 338.515625 C 407.660156 347.320312 399.070312 358.242188 393.976562 370.867188 C 385.492188 391.125 383.898438 414.566406 391.75 435.253906 C 392.113281 435.996094 392.539062 436.703125 393.023438 437.375 C 393.449219 432.519531 394.226562 427.71875 395.355469 422.980469 C 396.484375 418.238281 397.949219 413.605469 399.753906 409.078125 C 401.558594 404.550781 403.683594 400.179688 406.128906 395.960938 C 408.574219 391.746094 411.3125 387.730469 414.34375 383.914062 C 426.859375 368.320312 444.042969 357.078125 462.074219 348.804688 C 480.105469 340.53125 501.214844 333 520.945312 325.363281 C 501.109375 335.863281 480.425781 344.667969 461.121094 356.335938 C 447.4375 364.714844 433.222656 373.625 423.996094 387.203125 C 418.054688 395.367188 414.238281 404.703125 410.417969 413.929688 C 406.601562 423.160156 403.3125 432.492188 400.339844 442.039062 C 385.90625 486.84375 373.851562 532.277344 364.171875 578.34375 C 371.703125 572.613281 379.761719 567.417969 386.765625 561.054688 C 402.355469 547.792969 415.296875 530.824219 421.554688 511.304688 C 428.027344 517.667969 437.148438 519.898438 445.953125 520.746094 C 463.558594 522.441406 481.167969 518.414062 497.609375 512.152344 C 501.003906 510.773438 504.714844 509.925781 507.792969 507.910156 C 487.109375 510.882812 465.574219 509.394531 445.847656 502.5 C 440.011719 500.0625 433.753906 497.515625 429.300781 492.847656 C 443.195312 500.699219 459.636719 503.351562 475.441406 501.863281 C 493.789062 500.59375 511.292969 493.484375 527.097656 484.363281 C 537.8125 477.457031 547.820312 469.644531 557.117188 460.921875 C 538.339844 468.769531 517.761719 471.105469 497.503906 471 C 477.242188 470.890625 455.921875 467.390625 436.9375 459.117188 C 447.117188 461.558594 457.40625 463.890625 467.910156 464.101562 C 480.175781 464.601562 492.363281 463.851562 504.476562 461.851562 C 516.589844 459.851562 528.371094 456.640625 539.824219 452.222656 C 555.628906 445.753906 571.011719 437.691406 583.953125 426.449219 C 599.542969 412.976562 612.484375 396.855469 624.578125 380.308594 C 618.957031 384.445312 613.96875 389.535156 608.136719 393.355469 C 590.953125 405.976562 570.90625 413.929688 550.539062 419.445312 C 537.765625 422.8125 524.800781 425.109375 511.648438 426.335938 C 498.492188 427.566406 485.328125 427.707031 472.152344 426.765625 C 464.300781 425.917969 456.242188 425.492188 448.605469 423.265625 C 460.195312 423.6875 471.765625 423.335938 483.3125 422.214844 C 494.859375 421.09375 506.28125 419.210938 517.574219 416.570312 C 528.871094 413.925781 539.941406 410.546875 550.789062 406.429688 C 561.632812 402.3125 572.15625 397.492188 582.359375 391.976562 C 599.863281 382.746094 614.074219 368.425781 625.636719 352.515625 C 649.503906 319.527344 665.414062 281.34375 675.597656 242.09375 C 673.15625 245.914062 671.671875 250.15625 669.550781 254.1875 C 664.691406 264.148438 659.007812 273.617188 652.507812 282.59375 C 646.007812 291.570312 638.78125 299.921875 630.835938 307.648438 Z M 630.835938 307.648438 " fill-opacity="1" fill-rule="nonzero"/></g><g clip-path="url(#72b9e7e4b6)"><path fill="#ff3131" d="M 311.136719 420.402344 C 305.40625 405.765625 299.148438 390.914062 288.4375 379.246094 C 275.496094 365.667969 258.839844 356.546875 242.613281 347.636719 C 228.082031 339.574219 212.808594 333.105469 198.273438 325.253906 C 215.777344 332.148438 233.492188 338.621094 250.886719 345.941406 C 270.191406 354.425781 289.179688 365.457031 302.753906 382.003906 C 305.773438 385.679688 308.539062 389.539062 311.050781 393.578125 C 313.5625 397.617188 315.800781 401.804688 317.761719 406.140625 C 319.722656 410.472656 321.390625 414.917969 322.765625 419.46875 C 324.144531 424.023438 325.214844 428.648438 325.984375 433.34375 C 326.046875 434.695312 326.507812 435.898438 327.363281 436.949219 C 336.699219 412.871094 333.835938 384.761719 321.316406 362.378906 C 312.089844 345.941406 296.710938 334.164062 281.328125 323.769531 C 263.085938 311.785156 243.460938 302.132812 224.261719 291.949219 C 205.0625 281.765625 183 269.25 164.121094 255.355469 C 143.046875 239.859375 124.34375 221.898438 108.007812 201.46875 C 89.976562 179.300781 72.792969 155.648438 62.925781 128.492188 C 58.683594 117.566406 59.109375 105.582031 61.761719 94.445312 C 55.078125 104.945312 51.152344 116.824219 47.972656 128.703125 C 43.726562 146.417969 41.605469 164.769531 43.304688 182.90625 C 45.636719 211.121094 56.667969 238.066406 72.261719 261.402344 C 102.175781 305.207031 145.449219 339.152344 194.03125 360.046875 C 214.398438 368.851562 235.613281 375.425781 256.828125 381.578125 C 245.371094 380.835938 234.128906 378.292969 222.882812 376.0625 C 172.710938 366.410156 124.980469 342.546875 88.171875 306.90625 C 68.972656 288.34375 54.015625 265.539062 43.835938 241.035156 C 44.152344 246.230469 46.273438 251.113281 47.863281 255.992188 C 57.199219 285.902344 69.714844 314.964844 86.6875 341.378906 C 97.71875 358.457031 111.082031 374.261719 127.417969 386.351562 C 160.195312 406.929688 198.167969 418.386719 236.566406 421.992188 C 247.917969 423.371094 259.371094 422.628906 270.828125 422.949219 C 256.828125 426.234375 242.507812 427.085938 228.1875 427.191406 C 215.941406 427.210938 203.777344 426.222656 191.699219 424.21875 C 170.164062 420.71875 148.953125 414.675781 129.539062 404.703125 C 116.707031 398.445312 105.355469 389.429688 95.066406 379.5625 C 96.914062 382.683594 98.929688 385.6875 101.113281 388.582031 C 112.25 403.113281 124.128906 417.113281 138.34375 428.78125 C 152.558594 440.449219 171.226562 449.890625 189.683594 455.9375 C 219.488281 465.800781 252.054688 467.179688 282.390625 459.117188 C 262.765625 468.027344 240.914062 470.363281 219.703125 471.210938 C 200.183594 471.105469 180.136719 468.984375 162.210938 460.816406 C 173.167969 471.265625 185.261719 480.175781 198.488281 487.546875 C 217.367188 498.046875 239.324219 503.878906 260.964844 501.441406 C 271.253906 500.59375 280.90625 496.878906 290.132812 492.425781 C 282.601562 499.105469 272.84375 502.714844 263.296875 505.257812 C 254.898438 507.214844 246.394531 508.371094 237.78125 508.726562 C 229.164062 509.085938 220.59375 508.636719 212.0625 507.378906 C 214.1875 508.867188 216.730469 509.714844 219.066406 510.667969 C 220.171875 509.984375 221.375 509.699219 222.671875 509.820312 L 219.808594 511.515625 C 223.519531 511.941406 226.808594 513.746094 230.308594 514.804688 C 246.113281 519.898438 263.085938 522.550781 279.527344 519.367188 C 286.207031 517.988281 293.316406 515.867188 297.980469 510.351562 C 301.164062 522.972656 308.378906 534.21875 316.4375 544.292969 C 327.046875 557.765625 340.835938 568.160156 354.730469 578.023438 C 349.746094 552.460938 343.382812 527.320312 336.910156 502.078125 C 329.167969 474.605469 321.425781 447.027344 311.136719 420.402344 Z M 311.136719 420.402344 " fill-opacity="1" fill-rule="nonzero"/></g><g clip-path="url(#cc084b3edc)"><path fill="#ffffff" d="M 250.542969 595.730469 L 169.832031 502.042969 L 131.707031 255.457031 L 143.375 240.671875 C 212.652344 152.867188 350.339844 141 356.167969 140.539062 L 359.589844 140.265625 L 363.007812 140.539062 C 368.835938 141 506.53125 152.867188 575.800781 240.671875 L 587.472656 255.457031 L 549.34375 502.042969 L 468.632812 595.730469 L 359.589844 647.878906 Z M 250.542969 595.730469 " fill-opacity="1" fill-rule="nonzero"/></g><path fill="#0d0d2d" d="M 254.574219 590.464844 L 175.960938 499.21875 L 138.550781 257.257812 L 148.464844 244.6875 C 216.011719 159.089844 350.972656 147.460938 356.683594 147.007812 L 359.589844 146.78125 L 362.492188 147.007812 C 368.203125 147.460938 503.164062 159.089844 570.703125 244.691406 L 580.625 257.261719 L 543.21875 499.21875 L 464.601562 590.464844 L 359.589844 640.691406 Z M 254.574219 590.464844 " fill-opacity="1" fill-rule="nonzero"/><path fill="#ff3131" d="M 263.824219 573.382812 L 191.164062 489.042969 L 155.777344 260.199219 L 160.738281 253.917969 C 223.363281 174.546875 350.585938 163.597656 355.976562 163.171875 L 357.429688 163.054688 L 358.878906 163.171875 C 364.261719 163.601562 491.488281 174.546875 554.117188 253.917969 L 559.078125 260.199219 L 523.695312 489.042969 L 451.03125 573.382812 L 357.429688 618.152344 Z M 263.824219 573.382812 " fill-opacity="1" fill-rule="nonzero"/><path fill="#ff3131" d="M 265.984375 575.542969 L 193.324219 491.203125 L 157.9375 262.359375 L 162.898438 256.078125 C 225.523438 176.707031 352.746094 165.761719 358.136719 165.335938 L 359.589844 165.214844 L 361.039062 165.335938 C 366.421875 165.761719 493.648438 176.707031 556.277344 256.078125 L 561.238281 262.359375 L 525.855469 491.203125 L 453.195312 575.542969 L 359.589844 620.3125 Z M 265.984375 575.542969 " fill-opacity="1" fill-rule="nonzero"/><path fill="#0d0d2d" d="M 359.589844 183.660156 C 359.589844 183.660156 235.703125 193.484375 177.332031 267.460938 L 210.683594 483.191406 L 277.394531 560.617188 L 359.589844 599.933594 L 441.785156 560.617188 L 508.492188 483.191406 L 541.84375 267.460938 C 483.472656 193.484375 359.589844 183.660156 359.589844 183.660156 Z M 359.589844 183.660156 " fill-opacity="1" fill-rule="nonzero"/><g mask="url(#08c39000dc)"><g transform="matrix(1, 0, 0, 1, 191, 223)"><g clip-path="url(#153f112724)"><g clip-path="url(#e39dc7cfe8)"><path fill="#d22f28" d="M 195.625 152.109375 C 195.625 152.109375 189.519531 135.941406 169.886719 116.96875 C 169.886719 116.96875 167.742188 115.398438 170.628906 115.070312 C 173.515625 114.738281 180.199219 112.101562 184.488281 109.214844 C 188.777344 106.324219 194.304688 110.617188 196.449219 115.484375 C 196.449219 115.484375 200.738281 106.410156 194.304688 97.996094 C 187.871094 89.582031 173.515625 80.34375 141.011719 80.671875 C 141.011719 80.671875 155.203125 81.664062 158.832031 85.953125 C 158.832031 85.953125 134.917969 83.316406 123.699219 101.617188 C 124.0625 101.285156 136.960938 89.617188 153.222656 92.054688 C 153.222656 92.054688 135.074219 98.65625 138.871094 124.0625 C 138.871094 124.0625 139.859375 119.113281 144.148438 116.476562 C 144.148438 116.476562 140.355469 130.003906 144.972656 149.144531 C 144.972656 149.144531 146.457031 141.882812 149.757812 138.417969 C 149.757812 138.417969 149.429688 144.359375 150.253906 150.792969 C 150.253906 150.792969 148.769531 157.722656 111.480469 142.875 C 111.480469 142.875 156.546875 169.601562 168.570312 195.503906 C 168.570312 195.503906 177.640625 168.941406 225.816406 142.875 C 225.816406 142.871094 203.488281 152.054688 195.625 152.109375 Z M 184.488281 100.554688 C 182.253906 100.21875 179.699219 99.957031 178.28125 99.824219 C 177.585938 99.761719 176.953125 99.410156 176.511719 98.863281 C 173.429688 94.988281 171.699219 94.203125 171.699219 94.203125 C 178.714844 92.386719 184.488281 100.554688 184.488281 100.554688 Z M 103.398438 143.035156 C 48.179688 100.554688 78.648438 35.464844 78.648438 35.464844 C 43.671875 70.441406 59.511719 115.316406 59.511719 115.316406 C 47.300781 112.019531 38.0625 93.9375 38.0625 93.9375 C 35.09375 125.710938 66.324219 145.015625 66.324219 145.015625 C 43.179688 144.683594 27.175781 133.136719 27.175781 133.136719 C 52.585938 171.082031 85.582031 180.320312 85.582031 180.320312 C 47.523438 178.011719 39.605469 172.292969 39.605469 172.292969 C 73.039062 202.707031 132.765625 184.609375 132.765625 184.609375 C 132.765625 184.609375 124.484375 216.984375 85.140625 218.632812 C 51.925781 220.027344 38.394531 195.171875 38.394531 195.171875 C 69.304688 221.128906 106.699219 200.667969 106.699219 200.667969 C 26.628906 207.488281 5.730469 137.753906 5.730469 137.753906 C 13.867188 150.074219 32.347656 159.316406 32.347656 159.316406 C -6.257812 116.417969 1.109375 74.402344 1.109375 74.402344 C 14.308594 109.707031 29.15625 114.660156 29.15625 114.660156 C 3.089844 51.304688 41.695312 15.996094 41.695312 15.996094 C 27.507812 54.273438 38.398438 72.09375 38.398438 72.09375 C 59.847656 12.035156 121.222656 0.488281 121.222656 0.488281 C 44.992188 80.664062 103.398438 143.035156 103.398438 143.035156 Z M 111.71875 298.121094 L 94.175781 278.652344 C 138.390625 266.773438 160.152344 220.523438 160.152344 220.523438 C 148.933594 269.929688 111.71875 298.121094 111.71875 298.121094 Z M 138.9375 327.011719 L 120.144531 306.636719 C 161.234375 268.832031 161.574219 225.371094 161.574219 225.371094 C 168.941406 281.675781 138.9375 327.011719 138.9375 327.011719 Z M 215.929688 0.488281 C 215.929688 0.488281 277.304688 12.039062 298.75 72.09375 C 298.75 72.09375 309.640625 54.273438 295.453125 15.996094 C 295.453125 15.996094 334.058594 51.304688 307.992188 114.660156 C 307.992188 114.660156 322.839844 109.707031 336.039062 74.402344 C 336.039062 74.402344 343.410156 116.417969 304.800781 159.316406 C 304.800781 159.316406 323.28125 150.074219 331.417969 137.753906 C 331.417969 137.753906 310.519531 207.492188 230.449219 200.667969 C 230.449219 200.667969 267.847656 221.128906 298.753906 195.171875 C 298.753906 195.171875 285.226562 220.027344 252.007812 218.632812 C 212.664062 216.984375 204.382812 184.609375 204.382812 184.609375 C 204.382812 184.609375 264.105469 202.703125 297.546875 172.292969 C 297.546875 172.292969 289.625 178.011719 251.570312 180.320312 C 251.570312 180.320312 284.566406 171.082031 309.972656 133.136719 C 309.972656 133.136719 293.972656 144.683594 270.828125 145.015625 C 270.828125 145.015625 302.054688 125.710938 299.085938 93.9375 C 299.085938 93.9375 289.847656 112.015625 277.636719 115.316406 C 277.636719 115.316406 293.476562 70.441406 258.5 35.464844 C 258.5 35.464844 288.964844 100.554688 233.75 143.035156 C 233.746094 143.035156 292.148438 80.664062 215.929688 0.488281 Z M 176.988281 220.523438 C 176.988281 220.523438 198.75 266.773438 242.964844 278.652344 L 225.421875 298.121094 C 225.421875 298.121094 188.210938 269.929688 176.988281 220.523438 Z M 175.570312 225.371094 C 175.570312 225.371094 175.910156 268.832031 217 306.636719 L 198.207031 327.011719 C 198.203125 327.011719 168.199219 281.675781 175.570312 225.371094 Z M 175.570312 225.371094 " fill-opacity="1" fill-rule="nonzero"/></g><g clip-path="url(#1e9fb87e95)"><path fill="#ffa727" d="M 44.699219 254.019531 C 103.761719 255.335938 150.617188 205.839844 150.617188 205.839844 C 110.363281 285.035156 44.699219 254.019531 44.699219 254.019531 Z M 168.570312 265.757812 C 168.570312 265.757812 162.351562 313.117188 143.214844 332.476562 L 168.570312 356.675781 L 193.929688 332.476562 C 174.792969 313.117188 168.570312 265.757812 168.570312 265.757812 Z M 130.457031 166.796875 C 94.160156 141.386719 66.320312 137.097656 66.320312 112.019531 C 66.320312 112.019531 57.484375 134.28125 82.9375 147.65625 C 95.382812 154.195312 107.625 161.238281 118.660156 168.359375 C 95.777344 170.285156 74.800781 159.535156 74.800781 159.535156 C 94.296875 173.730469 119.9375 175.980469 130.386719 176.28125 C 147.984375 188.789062 160.714844 201.039062 163.125 210.679688 C 163.121094 210.679688 166.097656 191.742188 130.457031 166.796875 Z M 292.445312 254.019531 C 233.378906 255.335938 186.523438 205.839844 186.523438 205.839844 C 226.777344 285.035156 292.445312 254.019531 292.445312 254.019531 Z M 174.019531 210.679688 C 176.429688 201.039062 189.160156 188.789062 206.757812 176.28125 C 217.207031 175.980469 242.847656 173.730469 262.34375 159.535156 C 262.34375 159.535156 241.367188 170.289062 218.484375 168.359375 C 229.519531 161.238281 241.761719 154.195312 254.207031 147.65625 C 279.65625 134.28125 270.824219 112.019531 270.824219 112.019531 C 270.824219 137.097656 242.988281 141.386719 206.691406 166.796875 C 171.046875 191.742188 174.019531 210.679688 174.019531 210.679688 Z M 174.019531 210.679688 " fill-opacity="1" fill-rule="nonzero"/></g></g></g></g><path fill="#0d0d2d" d="M 360.007812 437.015625 C 427.792969 436.925781 494.003906 442.914062 536.496094 454.941406 L 544.90625 457.324219 L 540.207031 535.363281 L 540.363281 535.394531 L 540.203125 535.441406 L 540.1875 535.65625 L 539.730469 535.582031 L 482.527344 552.519531 L 484.472656 527.457031 C 442.988281 522.410156 401.5 519.835938 360.007812 519.714844 C 318.515625 519.835938 277.03125 522.410156 235.546875 527.457031 L 237.492188 552.519531 L 180.289062 535.582031 L 179.828125 535.65625 L 179.816406 535.441406 L 179.652344 535.394531 L 179.8125 535.363281 L 175.109375 457.324219 L 183.523438 454.941406 C 226.015625 442.914062 292.222656 436.925781 360.007812 437.015625 Z M 360.007812 437.015625 " fill-opacity="1" fill-rule="evenodd"/><path fill="#0d0d2d" d="M 360.007812 447.796875 C 426.660156 447.699219 491.746094 453.570312 533.535156 465.398438 L 530.066406 522.988281 C 473.375 513.703125 416.6875 509.011719 360.007812 508.847656 C 303.328125 509.011719 246.640625 513.703125 189.953125 522.988281 L 186.484375 465.398438 C 228.273438 453.570312 293.359375 447.699219 360.007812 447.796875 Z M 360.007812 447.796875 " fill-opacity="1" fill-rule="evenodd"/><g clip-path="url(#3a65ae3ece)"><path fill="#ff3131" d="M 360.007812 427.132812 C 428.816406 427.050781 496.066406 433.144531 539.207031 445.355469 L 555.332031 449.921875 L 550.148438 535.964844 L 550.144531 545.699219 C 550.144531 545.699219 472.246094 568.109375 472.246094 568.109375 C 472.246094 568.109375 473.800781 536.234375 473.800781 536.234375 C 435.871094 531.964844 397.9375 529.785156 360.007812 529.675781 C 322.078125 529.785156 284.148438 531.964844 246.21875 536.234375 C 246.21875 536.234375 247.769531 568.109375 247.769531 568.109375 C 247.769531 568.109375 169.875 545.699219 169.875 545.699219 L 169.871094 535.964844 L 164.6875 449.921875 L 180.8125 445.355469 C 223.953125 433.144531 291.203125 427.050781 360.007812 427.132812 Z M 360.214844 437.015625 L 359.804688 437.015625 C 292.089844 436.9375 225.972656 442.925781 183.523438 454.941406 L 175.109375 457.324219 L 179.8125 535.363281 L 179.652344 535.394531 L 179.816406 535.441406 L 179.828125 535.65625 L 180.289062 535.582031 L 237.492188 552.519531 L 235.546875 527.457031 C 276.960938 522.417969 318.375 519.84375 359.804688 519.714844 L 360.214844 519.714844 C 401.640625 519.84375 443.058594 522.417969 484.472656 527.457031 L 482.527344 552.519531 L 539.730469 535.582031 L 540.1875 535.65625 L 540.203125 535.441406 L 540.363281 535.394531 L 540.207031 535.363281 L 544.90625 457.324219 L 536.496094 454.941406 C 494.046875 442.925781 427.925781 436.9375 360.214844 437.015625 Z M 360.214844 437.015625 " fill-opacity="1" fill-rule="evenodd"/></g><path stroke-linecap="butt" transform="matrix(0.750654, -0.106112, 0.106112, 0.750654, 192.927972, 459.828286)" fill="none" stroke-linejoin="miter" d="M 1.949598 29.479063 L 10.838078 29.476216 L 10.838833 18.574377 L 16.54224 18.57402 L 16.540412 56.540632 L 12.325701 56.538075 L 12.327588 65.764666 L 29.979219 65.76207 L 29.976612 56.540581 L 25.761901 56.538024 L 25.763008 18.576514 L 31.481721 18.57832 L 31.481687 29.475057 L 40.374548 29.478033 L 40.370532 9.370011 L 1.950684 9.371762 Z M 1.949598 29.479063 " stroke="#0d0d2d" stroke-width="17.038088" stroke-opacity="1" stroke-miterlimit="4"/><path stroke-linecap="butt" transform="matrix(0.75329, -0.0854211, 0.0854211, 0.75329, 225.500192, 455.279518)" fill="none" stroke-linejoin="miter" d="M 1.951342 59.660801 L 7.591225 65.760775 L 25.891066 65.761693 L 31.928914 59.663618 L 31.925702 15.471662 L 26.016107 9.372217 L 7.92396 9.368923 L 1.948129 15.468844 Z M 22.721827 18.576438 L 22.720894 56.540031 L 11.172317 56.542407 L 11.168131 18.578233 Z M 22.721827 18.576438 " stroke="#0d0d2d" stroke-width="17.038088" stroke-opacity="1" stroke-miterlimit="4"/><path stroke-linecap="butt" transform="matrix(0.755386, -0.0642936, 0.0642936, 0.755386, 251.835722, 452.252422)" fill="none" stroke-linejoin="miter" d="M 1.951017 18.577482 L 6.165818 18.574235 L 6.161698 60.119276 L 11.948886 65.762356 L 31.863263 65.761187 L 37.503939 60.12376 L 37.502924 18.578281 L 41.733128 18.576345 L 41.735706 9.371835 L 24.086627 9.369306 L 24.083612 18.57895 L 28.298414 18.575703 L 28.298908 56.54267 L 15.386661 56.539956 L 15.38573 18.578124 L 19.600532 18.574877 L 19.597976 9.369929 L 1.948461 9.372534 Z M 1.951017 18.577482 " stroke="#0d0d2d" stroke-width="17.038088" stroke-opacity="1" stroke-miterlimit="4"/><path stroke-linecap="butt" transform="matrix(0.756997, -0.0411998, 0.0411998, 0.756997, 285.727313, 449.398007)" fill="none" stroke-linejoin="miter" d="M 1.950494 9.369271 L 1.950006 18.575028 L 6.165753 18.577423 L 6.163658 56.540846 L 1.947911 56.538451 L 1.946583 65.759642 L 19.599549 65.760615 L 19.600876 56.539424 L 15.384849 56.542174 L 15.386157 43.244429 L 18.554398 43.246575 L 29.599868 65.763066 L 38.945099 65.760824 L 38.946427 56.539633 L 35.050507 56.539164 L 28.29691 43.245315 L 31.341393 43.245886 L 36.139413 38.238463 L 36.139499 13.964922 L 31.342949 9.369306 Z M 26.935511 18.577742 L 26.935771 34.027373 L 15.387485 34.023237 L 15.386945 18.578751 Z M 26.935511 18.577742 " stroke="#0d0d2d" stroke-width="17.038088" stroke-opacity="1" stroke-miterlimit="4"/><path stroke-linecap="butt" transform="matrix(0.7579, -0.0181387, 0.0181387, 0.7579, 317.574011, 447.663743)" fill="none" stroke-linejoin="miter" d="M 1.946638 65.761044 L 19.599235 65.760888 L 19.598286 56.540285 L 15.387379 56.542587 L 15.385715 34.215238 L 28.819839 65.75994 L 37.251832 65.760733 L 37.252372 18.575493 L 41.463156 18.578342 L 41.466989 9.373316 L 23.814515 9.36832 L 23.81571 18.578621 L 28.031769 18.576442 L 28.029011 41.949956 L 14.465011 9.371338 L 1.951011 9.370777 L 1.947178 18.575804 L 6.163113 18.578776 L 6.161748 56.538261 L 1.95084 56.540563 Z M 1.946638 65.761044 " stroke="#0d0d2d" stroke-width="17.038088" stroke-opacity="1" stroke-miterlimit="4"/><path stroke-linecap="butt" transform="matrix(0.758091, 0.00632508, -0.00632508, 0.758091, 351.431237, 446.853287)" fill="none" stroke-linejoin="miter" d="M 1.948516 56.538008 L 1.94818 65.761426 L 19.601505 65.763566 L 19.601841 56.540148 L 14.737644 56.53951 L 15.700802 52.785428 L 29.391641 52.784559 L 30.438086 56.542486 L 25.888184 56.539226 L 25.887848 65.762644 L 43.999735 65.760958 L 44.000115 56.542692 L 39.388384 56.539948 L 26.808568 9.368463 L 18.425075 9.371424 L 5.782193 56.542091 Z M 22.722169 26.628187 L 27.064 43.688772 L 18.10855 43.691353 Z M 22.722169 26.628187 " stroke="#0d0d2d" stroke-width="17.038088" stroke-opacity="1" stroke-miterlimit="4"/><path stroke-linecap="butt" transform="matrix(0.757329, 0.0345632, -0.0345632, 0.757329, 387.366048, 447.093983)" fill="none" stroke-linejoin="miter" d="M 1.950738 9.370308 L 1.947981 18.577339 L 6.161942 18.575865 L 6.161415 56.538255 L 1.947454 56.539729 L 1.950548 65.761967 L 19.600944 65.761071 L 19.59785 56.538833 L 15.383888 56.540307 L 15.383679 33.70616 L 28.758915 66.15807 L 41.859508 33.709963 L 41.859482 56.538963 L 37.64552 56.540437 L 37.648615 65.762675 L 55.299011 65.761779 L 55.295916 56.539541 L 51.081955 56.541016 L 51.082482 18.578626 L 55.296443 18.577151 L 55.299201 9.37012 L 42.703641 9.372429 L 28.948359 44.088957 L 14.020343 9.371371 Z M 1.950738 9.370308 " stroke="#0d0d2d" stroke-width="17.038088" stroke-opacity="1" stroke-miterlimit="4"/><path stroke-linecap="butt" transform="matrix(0.755691, 0.0606106, -0.0606106, 0.755691, 431.720598, 449.260751)" fill="none" stroke-linejoin="miter" d="M 1.947812 56.539891 L 1.948257 65.761553 L 36.142123 65.763815 L 36.140731 44.865201 L 26.934477 44.864411 L 26.935423 56.541362 L 15.387698 56.542282 L 15.383583 39.412171 L 26.936444 39.410838 L 26.936192 30.127131 L 15.38333 30.128463 L 15.387134 18.57519 L 26.93486 18.57427 L 26.934795 26.307268 L 36.14105 26.308059 L 36.141904 9.368806 L 1.94845 9.371681 L 1.94766 18.577935 L 6.165472 18.575635 L 6.166036 56.542727 Z M 1.947812 56.539891 " stroke="#0d0d2d" stroke-width="17.038088" stroke-opacity="1" stroke-miterlimit="4"/><path stroke-linecap="butt" transform="matrix(0.753579, 0.0828254, -0.0828254, 0.753579, 461.375476, 451.62199)" fill="none" stroke-linejoin="miter" d="M 1.950243 65.761251 L 19.600246 65.760015 L 19.597539 56.538698 L 15.383477 56.540523 L 15.386655 34.214432 L 28.822126 65.762429 L 37.250813 65.763902 L 37.253351 18.577362 L 41.467412 18.575537 L 41.466393 9.369586 L 23.81639 9.370821 L 23.812287 18.577336 L 28.031471 18.574948 L 28.029325 41.948011 L 14.465341 9.372237 L 1.94664 9.369322 L 1.947659 18.575274 L 6.162284 18.578571 L 6.16216 56.543231 L 1.947535 56.539934 Z M 1.950243 65.761251 " stroke="#0d0d2d" stroke-width="17.038088" stroke-opacity="1" stroke-miterlimit="4"/><path stroke-linecap="butt" transform="matrix(0.750654, 0.106112, -0.106112, 0.750654, 494.998227, 455.338438)" fill="none" stroke-linejoin="miter" d="M 1.947153 29.476706 L 10.835633 29.479553 L 10.83998 18.576993 L 16.543387 18.577351 L 16.539393 56.539582 L 12.329784 56.541418 L 12.327176 65.762907 L 29.978087 65.760401 L 29.975592 56.539633 L 25.765984 56.541469 L 25.764155 18.574857 L 31.483589 18.578152 L 31.484344 29.479991 L 40.372103 29.477736 L 40.371017 9.370436 L 1.951169 9.368684 Z M 1.947153 29.476706 " stroke="#0d0d2d" stroke-width="17.038088" stroke-opacity="1" stroke-miterlimit="4"/><g fill="#ffffff" fill-opacity="1"><g transform="translate(198.976361, 502.615589)"><g><path d="M -1.46875 -20.859375 L 5.21875 -21.8125 L 4.0625 -30 L 8.34375 -30.59375 L 12.375 -2.09375 L 9.203125 -1.65625 L 10.171875 5.265625 L 23.4375 3.390625 L 22.46875 -3.53125 L 19.296875 -3.078125 L 15.265625 -31.578125 L 19.546875 -32.1875 L 20.703125 -24 L 27.390625 -24.9375 L 25.265625 -40.03125 L -3.59375 -35.953125 Z M -1.46875 -20.859375 "/></g></g></g><g fill="#ffffff" fill-opacity="1"><g transform="translate(230.369193, 498.21702)"><g><path d="M 1.6875 1.828125 L 6.46875 5.953125 L 20.25 4.375 L 24.28125 -0.734375 L 20.5 -34.015625 L 15.546875 -38.09375 L 1.90625 -36.546875 L -2.09375 -31.453125 Z M 13.828125 -30.875 L 17.078125 -2.28125 L 8.390625 -1.296875 L 5.140625 -29.890625 Z M 13.828125 -30.875 "/></g></g></g><g fill="#ffffff" fill-opacity="1"><g transform="translate(255.500458, 495.309431)"><g><path d="M -1 -29.140625 L 2.1875 -29.40625 L 4.859375 1.953125 L 9.578125 5.84375 L 24.625 4.5625 L 28.53125 -0.0625 L 25.859375 -31.421875 L 29.0625 -31.703125 L 28.46875 -38.671875 L 15.125 -37.53125 L 15.71875 -30.5625 L 18.90625 -30.828125 L 21.34375 -2.15625 L 11.578125 -1.328125 L 9.140625 -30 L 12.34375 -30.28125 L 11.75 -37.25 L -1.59375 -36.109375 Z M -1 -29.140625 "/></g></g></g><g fill="#ffffff" fill-opacity="1"><g transform="translate(288.075703, 492.546833)"><g><path d="M -0.5 -36.140625 L -0.109375 -29.15625 L 3.09375 -29.328125 L 4.65625 -0.59375 L 1.453125 -0.421875 L 1.828125 6.546875 L 15.203125 5.8125 L 14.828125 -1.15625 L 11.625 -0.984375 L 11.078125 -11.0625 L 13.5 -11.1875 L 22.765625 5.40625 L 29.828125 5.015625 L 29.453125 -1.953125 L 26.5 -1.78125 L 20.859375 -11.59375 L 23.171875 -11.71875 L 26.59375 -15.6875 L 25.59375 -34.0625 L 21.765625 -37.359375 Z M 18.8125 -30.1875 L 19.4375 -18.5 L 10.6875 -18.03125 L 10.0625 -29.71875 Z M 18.8125 -30.1875 "/></g></g></g><g fill="#ffffff" fill-opacity="1"><g transform="translate(318.607916, 490.864062)"><g><path d="M 1.625 6.609375 L 15.015625 6.28125 L 14.84375 -0.703125 L 11.640625 -0.625 L 11.25 -17.546875 L 22 6.125 L 28.390625 5.96875 L 27.53125 -29.78125 L 30.71875 -29.859375 L 30.5625 -36.84375 L 17.203125 -36.53125 L 17.359375 -29.546875 L 20.546875 -29.625 L 20.984375 -11.9375 L 10.109375 -36.359375 L 0.609375 -36.125 L 0.765625 -29.140625 L 3.96875 -29.21875 L 4.65625 -0.453125 L 1.453125 -0.375 Z M 1.625 6.609375 "/></g></g></g><g fill="#ffffff" fill-opacity="1"><g transform="translate(351.070707, 490.06447)"><g><path d="M 1.46875 -0.328125 L 1.40625 6.65625 L 14.796875 6.765625 L 14.859375 -0.21875 L 11.171875 -0.25 L 11.9375 -3.109375 L 22.3125 -3.015625 L 23.078125 -0.15625 L 19.625 -0.1875 L 19.5625 6.796875 L 33.296875 6.921875 L 33.359375 -0.0625 L 29.859375 -0.09375 L 20.625 -35.9375 L 14.265625 -36 L 4.375 -0.3125 Z M 17.40625 -22.890625 L 20.59375 -9.921875 L 13.8125 -9.984375 Z M 17.40625 -22.890625 "/></g></g></g><g fill="#ffffff" fill-opacity="1"><g transform="translate(385.395947, 490.261735)"><g><path d="M 3.109375 -36.015625 L 2.796875 -29.03125 L 6 -28.875 L 4.6875 -0.125 L 1.484375 -0.28125 L 1.171875 6.703125 L 14.546875 7.3125 L 14.859375 0.328125 L 11.65625 0.1875 L 12.453125 -17.109375 L 21.46875 7.9375 L 32.515625 -16.1875 L 31.71875 1.109375 L 28.515625 0.953125 L 28.203125 7.9375 L 41.578125 8.546875 L 41.890625 1.5625 L 38.6875 1.421875 L 40 -27.328125 L 43.203125 -27.1875 L 43.515625 -34.171875 L 33.984375 -34.609375 L 22.375 -8.78125 L 12.25 -35.59375 Z M 3.109375 -36.015625 "/></g></g></g><g fill="#ffffff" fill-opacity="1"><g transform="translate(428.265795, 492.335111)"><g><path d="M 1.5 -0.21875 L 0.9375 6.75 L 26.78125 8.8125 L 28.046875 -6.984375 L 21.09375 -7.546875 L 20.390625 1.28125 L 11.65625 0.59375 L 12.6875 -12.34375 L 21.421875 -11.65625 L 21.984375 -18.6875 L 13.25 -19.375 L 13.953125 -28.09375 L 22.6875 -27.40625 L 22.21875 -21.5625 L 29.171875 -21 L 30.203125 -33.8125 L 4.359375 -35.875 L 3.796875 -28.90625 L 6.984375 -28.65625 L 4.6875 0.03125 Z M 1.5 -0.21875 "/></g></g></g><g fill="#ffffff" fill-opacity="1"><g transform="translate(456.654429, 494.576016)"><g><path d="M 0.734375 6.75 L 14.046875 8.21875 L 14.796875 1.28125 L 11.625 0.921875 L 13.484375 -15.890625 L 21 8.984375 L 27.359375 9.6875 L 31.265625 -25.859375 L 34.4375 -25.515625 L 35.1875 -32.453125 L 21.890625 -33.921875 L 21.140625 -26.984375 L 24.3125 -26.625 L 22.375 -9.03125 L 14.84375 -34.6875 L 5.390625 -35.734375 L 4.640625 -28.796875 L 7.828125 -28.4375 L 4.671875 0.171875 L 1.484375 -0.1875 Z M 0.734375 6.75 "/></g></g></g><g fill="#ffffff" fill-opacity="1"><g transform="translate(488.949838, 498.125742)"><g><path d="M 4.375 -20.453125 L 11.0625 -19.5 L 12.21875 -27.6875 L 16.5 -27.09375 L 12.46875 1.40625 L 9.296875 0.96875 L 8.328125 7.890625 L 21.59375 9.765625 L 22.5625 2.84375 L 19.390625 2.390625 L 23.421875 -26.109375 L 27.703125 -25.5 L 26.546875 -17.3125 L 33.234375 -16.375 L 35.359375 -31.46875 L 6.5 -35.546875 Z M 4.375 -20.453125 "/></g></g></g><path stroke-linecap="butt" transform="matrix(1.205452, 0, 0, 1.205452, 297.889618, 334.269671)" fill="none" stroke-linejoin="miter" d="M 5.538827 13.862685 L 5.538827 21.425981 L 9.002907 21.425981 L 9.002907 52.622145 L 5.538827 52.622145 L 5.538827 60.201643 L 20.043245 60.201643 L 20.043245 52.622145 L 16.579165 52.622145 L 16.579165 41.698465 L 19.184516 41.698465 L 28.257879 60.201643 L 35.941072 60.201643 L 35.941072 52.622145 L 32.736231 52.622145 L 27.191759 41.698465 L 29.690174 41.698465 L 33.637086 37.583047 L 33.637086 17.637852 L 29.690174 13.862685 Z M 26.07055 21.425981 L 26.07055 34.122207 L 16.579165 34.122207 L 16.579165 21.425981 Z M 44.470033 55.188611 L 49.103929 60.201643 L 64.143027 60.201643 L 69.104212 55.188611 L 69.104212 18.875718 L 64.246722 13.862685 L 49.37613 13.862685 L 44.470033 18.875718 Z M 61.537676 21.425981 L 61.537676 52.622145 L 52.046291 52.622145 L 52.046291 21.425981 Z M 77.639653 21.425981 L 80.789406 21.425981 L 90.543271 60.201643 L 98.757904 60.201643 L 108.24929 21.425981 L 111.71337 21.425981 L 111.71337 13.862685 L 96.894625 13.862685 L 96.894625 21.425981 L 100.673032 21.425981 L 94.655448 46.763346 L 88.679991 21.425981 L 92.144071 21.425981 L 92.144071 13.862685 L 77.639653 13.862685 Z M 77.639653 21.425981 " stroke="#0d0d2d" stroke-width="13.999965" stroke-opacity="1" stroke-miterlimit="4"/><g fill="#ffffff" fill-opacity="1"><g transform="translate(302.636084, 398.158611)"><g><path d="M 1.921875 -47.1875 L 1.921875 -38.046875 L 6.109375 -38.046875 L 6.109375 -0.453125 L 1.921875 -0.453125 L 1.921875 8.671875 L 19.40625 8.671875 L 19.40625 -0.453125 L 15.234375 -0.453125 L 15.234375 -13.625 L 18.390625 -13.625 L 29.3125 8.671875 L 38.5625 8.671875 L 38.5625 -0.453125 L 34.71875 -0.453125 L 28.03125 -13.625 L 31.046875 -13.625 L 35.796875 -18.578125 L 35.796875 -42.625 L 31.046875 -47.1875 Z M 26.671875 -38.046875 L 26.671875 -22.75 L 15.234375 -22.75 L 15.234375 -38.046875 Z M 26.671875 -38.046875 "/></g></g></g><g fill="#ffffff" fill-opacity="1"><g transform="translate(349.5643, 398.158611)"><g><path d="M 1.921875 2.640625 L 7.515625 8.671875 L 25.640625 8.671875 L 31.625 2.640625 L 31.625 -41.140625 L 25.78125 -47.1875 L 7.84375 -47.1875 L 1.921875 -41.140625 Z M 22.5 -38.046875 L 22.5 -0.453125 L 11.0625 -0.453125 L 11.0625 -38.046875 Z M 22.5 -38.046875 "/></g></g></g><g fill="#ffffff" fill-opacity="1"><g transform="translate(389.549801, 398.158611)"><g><path d="M 1.921875 -38.046875 L 5.71875 -38.046875 L 17.484375 8.671875 L 27.390625 8.671875 L 38.828125 -38.046875 L 43 -38.046875 L 43 -47.1875 L 25.140625 -47.1875 L 25.140625 -38.046875 L 29.703125 -38.046875 L 22.4375 -7.515625 L 15.234375 -38.046875 L 19.40625 -38.046875 L 19.40625 -47.1875 L 1.921875 -47.1875 Z M 1.921875 -38.046875 "/></g></g></g><path stroke-linecap="butt" transform="matrix(1.865675, 0, 0, 1.865675, 311.186793, 535.15389)" fill="none" stroke-linejoin="miter" d="M 3.723059 12.827552 L 3.723059 20.476006 L 12.194355 20.476006 L 12.194355 17.869293 L 6.327679 17.869293 L 6.327679 13.746707 L 10.672202 13.746707 L 12.194355 12.147085 L 12.194355 6.263659 L 10.617765 4.540506 L 5.481806 4.540506 L 3.723059 6.299253 L 3.723059 9.251434 L 6.327679 9.251434 L 6.327679 7.140938 L 9.591829 7.140938 L 9.591829 11.158837 L 5.375025 11.158837 Z M 15.1256 18.752853 L 16.71894 20.476006 L 21.890493 20.476006 L 23.596896 18.752853 L 23.596896 6.263659 L 21.926086 4.540506 L 16.813159 4.540506 L 15.1256 6.263659 Z M 20.994369 7.140938 L 20.994369 17.869293 L 17.73022 17.869293 L 17.73022 7.140938 Z M 26.526046 12.827552 L 26.526046 20.476006 L 34.999436 20.476006 L 34.999436 17.869293 L 29.13276 17.869293 L 29.13276 13.746707 L 33.475189 13.746707 L 34.999436 12.147085 L 34.999436 6.263659 L 33.422845 4.540506 L 28.286887 4.540506 L 26.526046 6.299253 L 26.526046 9.251434 L 29.13276 9.251434 L 29.13276 7.140938 L 32.39691 7.140938 L 32.39691 11.158837 L 28.180106 11.158837 Z M 37.449119 14.054487 L 38.753523 16.531389 L 44.860979 16.531389 L 44.860979 17.869293 L 43.759669 17.869293 L 43.759669 20.476006 L 48.604597 20.476006 L 48.604597 17.869293 L 47.448849 17.869293 L 47.448849 16.531389 L 48.604597 16.531389 L 48.604597 13.947706 L 47.448849 13.947706 L 47.448849 7.140938 L 48.604597 7.140938 L 48.604597 4.55935 L 44.896573 4.55935 Z M 44.860979 8.462092 L 44.860979 13.947706 L 40.55205 13.947706 Z M 44.860979 8.462092 " stroke="#0d0d2d" stroke-width="4.81656" stroke-opacity="1" stroke-miterlimit="4"/><g fill="#ffffff" fill-opacity="1"><g transform="translate(317.104482, 568.736045)"><g><path d="M 1.03125 -9.65625 L 1.03125 4.625 L 16.828125 4.625 L 16.828125 -0.234375 L 5.890625 -0.234375 L 5.890625 -7.9375 L 14 -7.9375 L 16.828125 -10.921875 L 16.828125 -21.90625 L 13.890625 -25.109375 L 4.3125 -25.109375 L 1.03125 -21.828125 L 1.03125 -16.328125 L 5.890625 -16.328125 L 5.890625 -20.25 L 11.984375 -20.25 L 11.984375 -12.765625 L 4.109375 -12.765625 Z M 1.03125 -9.65625 "/></g></g></g><g fill="#ffffff" fill-opacity="1"><g transform="translate(338.377287, 568.736045)"><g><path d="M 1.03125 1.40625 L 4 4.625 L 13.65625 4.625 L 16.828125 1.40625 L 16.828125 -21.90625 L 13.71875 -25.109375 L 4.171875 -25.109375 L 1.03125 -21.90625 Z M 11.984375 -20.25 L 11.984375 -0.234375 L 5.890625 -0.234375 L 5.890625 -20.25 Z M 11.984375 -20.25 "/></g></g></g><g fill="#ffffff" fill-opacity="1"><g transform="translate(359.650093, 568.736045)"><g><path d="M 1.03125 -9.65625 L 1.03125 4.625 L 16.828125 4.625 L 16.828125 -0.234375 L 5.890625 -0.234375 L 5.890625 -7.9375 L 14 -7.9375 L 16.828125 -10.921875 L 16.828125 -21.90625 L 13.890625 -25.109375 L 4.3125 -25.109375 L 1.03125 -21.828125 L 1.03125 -16.328125 L 5.890625 -16.328125 L 5.890625 -20.25 L 11.984375 -20.25 L 11.984375 -12.765625 L 4.109375 -12.765625 Z M 1.03125 -9.65625 "/></g></g></g><g fill="#ffffff" fill-opacity="1"><g transform="translate(380.922897, 568.736045)"><g><path d="M 0.140625 -7.359375 L 2.5625 -2.734375 L 13.96875 -2.734375 L 13.96875 -0.234375 L 11.90625 -0.234375 L 11.90625 4.625 L 20.9375 4.625 L 20.9375 -0.234375 L 18.78125 -0.234375 L 18.78125 -2.734375 L 20.9375 -2.734375 L 20.9375 -7.5625 L 18.78125 -7.5625 L 18.78125 -20.25 L 20.9375 -20.25 L 20.9375 -25.078125 L 14.03125 -25.078125 Z M 13.96875 -17.796875 L 13.96875 -7.5625 L 5.921875 -7.5625 Z M 13.96875 -17.796875 "/></g></g></g><path stroke-linecap="butt" transform="matrix(4.116968, -1.385855, 1.385855, 4.116968, 162.520454, 281.635963)" fill="none" stroke-linejoin="miter" d="M 0.550576 15.870414 L 0.551122 18.476049 L 10.212982 18.475883 L 10.213088 12.570481 L 7.611436 12.57047 L 7.611636 15.870523 L 4.347697 15.870545 L 4.34807 11.029806 L 7.612008 11.029784 L 7.611799 8.406234 L 4.347861 8.406256 L 4.347838 5.142318 L 7.611777 5.142296 L 7.611575 7.327354 L 10.213228 7.327365 L 10.21344 2.540654 L 0.550728 2.540534 L 0.550717 5.142187 L 1.741638 5.141725 L 1.741497 15.869952 Z M 0.550576 15.870414 " stroke="#0d0d2d" stroke-width="4.81656" stroke-opacity="1" stroke-miterlimit="4"/><path stroke-linecap="butt" transform="matrix(4.24018, -0.943869, 0.943869, 4.24018, 219.419274, 263.327206)" fill="none" stroke-linejoin="miter" d="M 0.550294 3.932987 L 0.550624 10.040002 L 2.037217 11.527083 L 6.63974 11.527184 L 6.640318 15.870067 L 3.157018 15.87037 L 3.156348 13.944816 L 0.55097 13.945241 L 0.550535 16.769685 L 2.274743 18.476406 L 7.33432 18.475989 L 9.242147 16.514646 L 9.241219 10.443427 L 7.759411 8.938986 L 3.156888 8.938885 L 3.156308 5.1423 L 6.640485 5.142193 L 6.640395 7.013224 L 9.241872 7.013773 L 9.241606 3.968995 L 7.777913 2.540444 L 1.961068 2.540879 Z M 0.550294 3.932987 " stroke="#0d0d2d" stroke-width="4.81656" stroke-opacity="1" stroke-miterlimit="4"/><path stroke-linecap="butt" transform="matrix(4.316086, -0.491353, 0.491353, 4.316086, 273.775945, 251.816845)" fill="none" stroke-linejoin="miter" d="M 0.550599 18.475711 L 5.539154 18.476156 L 5.538932 15.870508 L 4.347976 15.869778 L 4.347924 11.728289 L 8.601628 11.728341 L 10.213578 10.129816 L 10.213516 4.040669 L 8.713597 2.540405 L 0.550974 2.540634 L 0.550811 5.141714 L 1.741868 5.14155 L 1.741434 15.869899 L 0.550377 15.870063 Z M 7.611948 5.14189 L 7.611741 9.158454 L 4.34731 9.157892 L 4.347415 5.142222 Z M 7.611948 5.14189 " stroke="#0d0d2d" stroke-width="4.81656" stroke-opacity="1" stroke-miterlimit="4"/><path stroke-linecap="butt" transform="matrix(4.343802, -0.0375233, 0.0375233, 4.343802, 333.20395, 245.871191)" fill="none" stroke-linejoin="miter" d="M 0.551137 16.751842 L 2.145036 18.476022 L 7.31674 18.475733 L 9.022256 16.752178 L 9.022221 4.264016 L 7.351881 2.540075 L 2.238626 2.540869 L 0.551094 4.26458 Z M 6.421145 5.141716 L 6.421095 15.870006 L 3.15674 15.870584 L 3.15679 5.142294 Z M 6.421145 5.141716 " stroke="#0d0d2d" stroke-width="4.81656" stroke-opacity="1" stroke-miterlimit="4"/><path stroke-linecap="butt" transform="matrix(4.322471, 0.431586, -0.431586, 4.322471, 387.93643, 245.878367)" fill="none" stroke-linejoin="miter" d="M 0.550337 2.540623 L 0.550748 5.142356 L 1.741782 5.141821 L 1.742036 15.869708 L 0.551003 15.870243 L 0.550876 18.475645 L 5.538523 18.47649 L 5.53856 15.870194 L 4.347437 15.869834 L 4.34738 12.113128 L 5.242959 12.113174 L 8.364396 18.476292 L 11.005947 18.476423 L 11.005984 15.870127 L 9.904339 15.869871 L 7.996624 12.113859 L 8.856949 12.113811 L 10.213103 10.698753 L 10.213158 3.838703 L 8.856341 2.540897 Z M 7.611406 5.142263 L 7.61164 9.507147 L 4.347506 9.507726 L 4.348078 5.141858 Z M 7.611406 5.142263 " stroke="#0d0d2d" stroke-width="4.81656" stroke-opacity="1" stroke-miterlimit="4"/><path stroke-linecap="butt" transform="matrix(4.241084, 0.939799, -0.939799, 4.241084, 451.370405, 252.973455)" fill="none" stroke-linejoin="miter" d="M 0.551147 8.222392 L 3.062794 8.22214 L 3.062785 5.142151 L 4.674663 5.142336 L 4.674581 15.869821 L 3.483765 15.870279 L 3.483668 18.47595 L 8.471166 18.47601 L 8.471263 15.870338 L 7.280252 15.869918 L 7.280334 5.142433 L 8.896602 5.141645 L 8.896806 8.222511 L 11.408453 8.222259 L 11.408441 2.540306 L 0.551135 2.540438 Z M 0.551147 8.222392 " stroke="#0d0d2d" stroke-width="4.81656" stroke-opacity="1" stroke-miterlimit="4"/><path stroke-linecap="butt" transform="matrix(4.111057, 1.403295, -1.403295, 4.111057, 514.79741, 268.044588)" fill="none" stroke-linejoin="miter" d="M 0.551023 3.933404 L 0.550881 10.040268 L 2.037181 11.527356 L 6.639719 11.526945 L 6.639971 15.870139 L 3.156715 15.87046 L 3.156792 13.944415 L 0.550535 13.944682 L 0.550675 16.770474 L 2.274856 18.475669 L 7.333817 18.47624 L 9.241199 16.514862 L 9.241876 10.442971 L 7.759439 8.939362 L 3.15661 8.938921 L 3.156592 5.142002 L 6.639848 5.141682 L 6.640233 7.013408 L 9.241945 7.013743 L 9.241931 3.968416 L 7.777669 2.540318 L 1.960868 2.540934 Z M 0.551023 3.933404 " stroke="#0d0d2d" stroke-width="4.81656" stroke-opacity="1" stroke-miterlimit="4"/><g fill="#ffffff" fill-opacity="1"><g transform="translate(184.694135, 347.507458)"><g><path d="M 2.09375 -1.296875 L 5.6875 9.421875 L 45.484375 -3.96875 L 37.3125 -28.28125 L 26.578125 -24.671875 L 31.15625 -11.078125 L 17.71875 -6.546875 L 11 -26.484375 L 24.4375 -31.015625 L 20.8125 -41.8125 L 7.375 -37.28125 L 2.84375 -50.71875 L 16.28125 -55.25 L 19.3125 -46.265625 L 30.046875 -49.875 L 23.40625 -69.578125 L -16.390625 -56.1875 L -12.78125 -45.46875 L -7.875 -47.109375 L 7 -2.9375 Z M 2.09375 -1.296875 "/></g></g></g><g fill="#ffffff" fill-opacity="1"><g transform="translate(234.521182, 331.170092)"><g><path d="M -9.0625 -51.6875 L -3.296875 -25.78125 L 4.40625 -20.890625 L 23.9375 -25.234375 L 28.03125 -6.8125 L 13.25 -3.53125 L 11.4375 -11.6875 L 0.390625 -9.21875 L 3.046875 2.75 L 11.96875 8.359375 L 33.4375 3.578125 L 39.6875 -6.53125 L 33.953125 -32.28125 L 26.21875 -37.265625 L 6.703125 -32.921875 L 3.125 -49.03125 L 17.90625 -52.3125 L 19.671875 -44.375 L 30.71875 -46.828125 L 27.84375 -59.734375 L 20.265625 -64.4375 L -4.375 -58.953125 Z M -9.0625 -51.6875 "/></g></g></g><g fill="#ffffff" fill-opacity="1"><g transform="translate(281.63759, 320.874219)"><g><path d="M 3.59375 10.421875 L 25.125 7.96875 L 23.84375 -3.28125 L 18.6875 -2.703125 L 16.65625 -20.578125 L 35.03125 -22.65625 L 41.203125 -30.359375 L 38.21875 -56.640625 L 30.984375 -62.390625 L -4.234375 -58.375 L -2.953125 -47.140625 L 2.1875 -47.734375 L 7.453125 -1.421875 L 2.3125 -0.828125 Z M 27.515625 -50.609375 L 29.484375 -33.265625 L 15.390625 -31.671875 L 13.421875 -49.015625 Z M 27.515625 -50.609375 "/></g></g></g><g fill="#ffffff" fill-opacity="1"><g transform="translate(333.804322, 315.372015)"><g><path d="M 2.421875 3.25 L 9.421875 10.671875 L 31.890625 10.46875 L 39.234375 2.921875 L 38.765625 -51.328125 L 31.453125 -58.765625 L 9.21875 -58.5625 L 1.953125 -51 Z M 27.484375 -47.40625 L 27.890625 -0.796875 L 13.703125 -0.6875 L 13.296875 -47.296875 Z M 27.484375 -47.40625 "/></g></g></g><g fill="#ffffff" fill-opacity="1"><g transform="translate(381.031056, 315.037908)"><g><path d="M 8.1875 -57.953125 L 7.0625 -46.703125 L 12.21875 -46.1875 L 7.59375 0.1875 L 2.4375 -0.328125 L 1.3125 10.9375 L 22.875 13.09375 L 24 1.828125 L 18.84375 1.3125 L 20.453125 -14.9375 L 24.34375 -14.546875 L 35.078125 14.3125 L 46.5 15.453125 L 47.625 4.1875 L 42.859375 3.71875 L 36.234375 -13.359375 L 39.96875 -12.984375 L 46.4375 -18.515625 L 49.40625 -48.15625 L 44.109375 -54.359375 Z M 37.59375 -43.65625 L 35.703125 -24.78125 L 21.578125 -26.1875 L 23.46875 -45.0625 Z M 37.59375 -43.65625 "/></g></g></g><g fill="#ffffff" fill-opacity="1"><g transform="translate(436.333616, 320.830806)"><g><path d="M 9.640625 -32.46875 L 20.3125 -30.109375 L 23.203125 -43.171875 L 30.03125 -41.65625 L 19.953125 3.84375 L 14.90625 2.734375 L 12.453125 13.78125 L 33.609375 18.46875 L 36.0625 7.421875 L 31 6.296875 L 41.078125 -39.203125 L 47.921875 -37.6875 L 45.03125 -24.625 L 55.703125 -22.265625 L 61.046875 -46.375 L 14.984375 -56.578125 Z M 9.640625 -32.46875 "/></g></g></g><g fill="#ffffff" fill-opacity="1"><g transform="translate(492.34469, 333.821496)"><g><path d="M 19.203125 -48.84375 L 10.625 -23.734375 L 14.65625 -15.53125 L 33.578125 -9.078125 L 27.484375 8.78125 L 13.15625 3.890625 L 15.84375 -4.015625 L 5.140625 -7.671875 L 1.1875 3.9375 L 5.875 13.359375 L 26.703125 20.46875 L 37.28125 15.078125 L 45.796875 -9.875 L 41.796875 -18.140625 L 22.875 -24.609375 L 28.203125 -40.21875 L 42.53125 -35.328125 L 39.90625 -27.640625 L 50.609375 -23.984375 L 54.890625 -36.5 L 50.859375 -44.4375 L 26.96875 -52.59375 Z M 19.203125 -48.84375 "/></g></g></g><g clip-path="url(#dc5cf7ce4c)"><g clip-path="url(#029ac9de66)"><path fill="#ffcc00" d="M 334.671875 201.296875 L 384.769531 201.296875 L 384.769531 245.671875 L 334.671875 245.671875 Z M 334.671875 201.296875 " fill-opacity="1" fill-rule="nonzero"/></g></g><g clip-path="url(#56b187744a)"><g clip-path="url(#8fe4aaaca3)"><path fill="#ffcc00" d="M 267.976562 214.265625 L 303.429688 214.265625 L 303.429688 245.671875 L 267.976562 245.671875 Z M 267.976562 214.265625 " fill-opacity="1" fill-rule="nonzero"/></g></g><g clip-path="url(#26c39fead5)"><g clip-path="url(#bd4a064c9b)"><path fill="#ffcc00" d="M 415.777344 214.265625 L 451.234375 214.265625 L 451.234375 245.671875 L 415.777344 245.671875 Z M 415.777344 214.265625 " fill-opacity="1" fill-rule="nonzero"/></g></g></svg>